<svg xmlns="http://www.w3.org/2000/svg" xmlns:xlink="http://www.w3.org/1999/xlink" viewBox="0 0 1152.355 576.043">
  <defs>
    <style>
      .cls-1, .cls-20, .cls-21, .cls-22, .cls-23, .cls-24, .cls-25 {
        fill: none;
      }

      .cls-16, .cls-17, .cls-2 {
        fill: #848484;
      }

      .cls-2, .cls-4, .cls-5, .cls-6 {
        fill-rule: evenodd;
      }

      .cls-3 {
        clip-path: url(#clip-path);
      }

      .cls-4 {
        fill: #fff;
      }

      .cls-5 {
        fill: #f8f8f8;
      }

      .cls-6 {
        fill: #e6e5e5;
      }

      .cls-7 {
        fill: url(#linear-gradient);
      }

      .cls-8 {
        fill: url(#linear-gradient-2);
      }

      .cls-9 {
        fill: url(#linear-gradient-3);
      }

      .cls-10 {
        fill: url(#linear-gradient-4);
      }

      .cls-11 {
        fill: url(#linear-gradient-6);
      }

      .cls-12 {
        fill: url(#linear-gradient-9);
      }

      .cls-13 {
        fill: url(#linear-gradient-11);
      }

      .cls-14 {
        fill: #d5d5d5;
      }

      .cls-15 {
        fill: #c1c9d3;
      }

      .cls-17 {
        stroke: #707070;
      }

      .cls-18 {
        fill: url(#linear-gradient-15);
      }

      .cls-19 {
        stroke: none;
      }

      .cls-20 {
        clip-path: url(#clip);
      }

      .cls-21 {
        clip-path: url(#clip-2);
      }

      .cls-22 {
        clip-path: url(#clip-3);
      }

      .cls-23 {
        clip-path: url(#clip-4);
      }

      .cls-24 {
        clip-path: url(#clip-5);
      }

      .cls-25 {
        clip-path: url(#clip-6);
      }
    </style>
    <clipPath id="clip-path">
      <rect class="cls-1" width="1132" height="566"/>
    </clipPath>
    <linearGradient id="linear-gradient" x1="0.5" x2="0.5" y2="1" gradientUnits="objectBoundingBox">
      <stop offset="0" stop-color="#e5e2df"/>
      <stop offset="0" stop-color="#d6d7d7"/>
      <stop offset="0" stop-color="#d1d3d4"/>
      <stop offset="0.07" stop-color="#edeeee"/>
      <stop offset="0.11" stop-color="#fff"/>
      <stop offset="0.13" stop-color="#f5f5f6"/>
      <stop offset="0.17" stop-color="#dbdcdd"/>
      <stop offset="0.22" stop-color="#b1b2b4"/>
      <stop offset="0.25" stop-color="#97999c"/>
      <stop offset="0.27" stop-color="#9a9c9e"/>
      <stop offset="0.29" stop-color="#a2a4a7"/>
      <stop offset="0.3" stop-color="#b0b2b4"/>
      <stop offset="0.31" stop-color="#c4c6c8"/>
      <stop offset="0.31" stop-color="#d1d3d4"/>
      <stop offset="0.42" stop-color="#c8caca"/>
      <stop offset="0.59" stop-color="#b0b0b0"/>
      <stop offset="0.65" stop-color="#a6a6a6"/>
      <stop offset="0.68" stop-color="#b0b0b0"/>
      <stop offset="0.74" stop-color="#cacaca"/>
      <stop offset="0.74" stop-color="#ccc"/>
      <stop offset="0.75" stop-color="#d6d6d6"/>
      <stop offset="0.76" stop-color="#e1e1e1"/>
      <stop offset="0.78" stop-color="#e5e5e5"/>
      <stop offset="0.8" stop-color="#f0f0f0"/>
      <stop offset="0.84" stop-color="#fbfbfb"/>
      <stop offset="0.88" stop-color="#fff"/>
      <stop offset="0.9" stop-color="#eaebec"/>
      <stop offset="0.92" stop-color="#d0d2d3"/>
      <stop offset="0.95" stop-color="#bebfc2"/>
      <stop offset="0.97" stop-color="#b3b5b7"/>
      <stop offset="1" stop-color="#afb1b4"/>
    </linearGradient>
    <linearGradient id="linear-gradient-2" x1="1" y1="0.5" x2="0" y2="0.5" xlink:href="#linear-gradient"/>
    <linearGradient id="linear-gradient-3" x1="1" y1="0.5" x2="0" y2="0.5" xlink:href="#linear-gradient"/>
    <linearGradient id="linear-gradient-4" x1="0.5" x2="0.5" y2="1" gradientUnits="objectBoundingBox">
      <stop offset="0" stop-color="#fdd25e"/>
      <stop offset="1" stop-color="#f7ca50"/>
    </linearGradient>
    <linearGradient id="linear-gradient-6" x1="0.5" x2="0.5" y2="1" gradientUnits="objectBoundingBox">
      <stop offset="0" stop-color="#fdd25e"/>
      <stop offset="1" stop-color="#fcc122"/>
    </linearGradient>
    <linearGradient id="linear-gradient-9" x1="0.5" x2="0.5" y2="1" gradientUnits="objectBoundingBox">
      <stop offset="0" stop-color="#fcc228"/>
      <stop offset="1" stop-color="#fccf55"/>
    </linearGradient>
    <linearGradient id="linear-gradient-11" x1="0.5" x2="0.5" y2="1" gradientUnits="objectBoundingBox">
      <stop offset="0" stop-color="#ffd562"/>
      <stop offset="1" stop-color="#f7ca4f"/>
    </linearGradient>
    <linearGradient id="linear-gradient-15" x1="0.5" x2="0.5" y2="1" gradientUnits="objectBoundingBox">
      <stop offset="0" stop-color="#fff"/>
      <stop offset="1" stop-color="#9b9a9a"/>
    </linearGradient>
    <clipPath id="clip">
      <use xlink:href="#fill"/>
    </clipPath>
    <clipPath id="clip-2">
      <use xlink:href="#fill-2"/>
    </clipPath>
    <clipPath id="clip-3">
      <use xlink:href="#fill-3"/>
    </clipPath>
    <clipPath id="clip-4">
      <use xlink:href="#fill-4"/>
    </clipPath>
    <clipPath id="clip-5">
      <use xlink:href="#fill-5"/>
    </clipPath>
    <clipPath id="clip-6">
      <use xlink:href="#fill-6"/>
    </clipPath>
  </defs>
  <g id="Rollup_doors_16_8_silver" transform="translate(-7524.988 -2551)">
    <g id="Group_24" data-name="Group 24" transform="translate(0 0.027)">
      <g id="Rollup_doors_16_8" data-name="Rollup_doors_16*8" transform="translate(6119 -562)">
        <path id="Path_75" data-name="Path 75" class="cls-2" d="M0,0H1152V576H0Z" transform="translate(1406 3113)"/>
        <g id="Repeat_Grid_5" data-name="Repeat Grid 5" class="cls-3" transform="translate(1416 3123)">
          <g id="Group_10" data-name="Group 10" transform="translate(-48 -616)">
            <path id="Path_31" data-name="Path 31" class="cls-4" d="M14.018,10H1125.982L1136,20H4Z" transform="translate(44 606)"/>
            <path id="Path_32" data-name="Path 32" class="cls-5" d="M14.018,40H1125.982L1136,30H4Z" transform="translate(44 606)"/>
            <path id="Path_33" data-name="Path 33" class="cls-4" d="M3,20H1135V30H3Z" transform="translate(45 606)"/>
            <path id="Path_74" data-name="Path 74" class="cls-6" d="M13,40H1125V50H13Z" transform="translate(45 606)"/>
          </g>
          <g id="Group_10-2" data-name="Group 10" transform="translate(-48 -576)">
            <path id="Path_31-2" data-name="Path 31" class="cls-4" d="M14.018,10H1125.982L1136,20H4Z" transform="translate(44 606)"/>
            <path id="Path_32-2" data-name="Path 32" class="cls-5" d="M14.018,40H1125.982L1136,30H4Z" transform="translate(44 606)"/>
            <path id="Path_33-2" data-name="Path 33" class="cls-4" d="M3,20H1135V30H3Z" transform="translate(45 606)"/>
            <path id="Path_74-2" data-name="Path 74" class="cls-6" d="M13,40H1125V50H13Z" transform="translate(45 606)"/>
          </g>
          <g id="Group_10-3" data-name="Group 10" transform="translate(-48 -536)">
            <path id="Path_31-3" data-name="Path 31" class="cls-4" d="M14.018,10H1125.982L1136,20H4Z" transform="translate(44 606)"/>
            <path id="Path_32-3" data-name="Path 32" class="cls-5" d="M14.018,40H1125.982L1136,30H4Z" transform="translate(44 606)"/>
            <path id="Path_33-3" data-name="Path 33" class="cls-4" d="M3,20H1135V30H3Z" transform="translate(45 606)"/>
            <path id="Path_74-3" data-name="Path 74" class="cls-6" d="M13,40H1125V50H13Z" transform="translate(45 606)"/>
          </g>
          <g id="Group_10-4" data-name="Group 10" transform="translate(-48 -496)">
            <path id="Path_31-4" data-name="Path 31" class="cls-4" d="M14.018,10H1125.982L1136,20H4Z" transform="translate(44 606)"/>
            <path id="Path_32-4" data-name="Path 32" class="cls-5" d="M14.018,40H1125.982L1136,30H4Z" transform="translate(44 606)"/>
            <path id="Path_33-4" data-name="Path 33" class="cls-4" d="M3,20H1135V30H3Z" transform="translate(45 606)"/>
            <path id="Path_74-4" data-name="Path 74" class="cls-6" d="M13,40H1125V50H13Z" transform="translate(45 606)"/>
          </g>
          <g id="Group_10-5" data-name="Group 10" transform="translate(-48 -456)">
            <path id="Path_31-5" data-name="Path 31" class="cls-4" d="M14.018,10H1125.982L1136,20H4Z" transform="translate(44 606)"/>
            <path id="Path_32-5" data-name="Path 32" class="cls-5" d="M14.018,40H1125.982L1136,30H4Z" transform="translate(44 606)"/>
            <path id="Path_33-5" data-name="Path 33" class="cls-4" d="M3,20H1135V30H3Z" transform="translate(45 606)"/>
            <path id="Path_74-5" data-name="Path 74" class="cls-6" d="M13,40H1125V50H13Z" transform="translate(45 606)"/>
          </g>
          <g id="Group_10-6" data-name="Group 10" transform="translate(-48 -416)">
            <path id="Path_31-6" data-name="Path 31" class="cls-4" d="M14.018,10H1125.982L1136,20H4Z" transform="translate(44 606)"/>
            <path id="Path_32-6" data-name="Path 32" class="cls-5" d="M14.018,40H1125.982L1136,30H4Z" transform="translate(44 606)"/>
            <path id="Path_33-6" data-name="Path 33" class="cls-4" d="M3,20H1135V30H3Z" transform="translate(45 606)"/>
            <path id="Path_74-6" data-name="Path 74" class="cls-6" d="M13,40H1125V50H13Z" transform="translate(45 606)"/>
          </g>
          <g id="Group_10-7" data-name="Group 10" transform="translate(-48 -376)">
            <path id="Path_31-7" data-name="Path 31" class="cls-4" d="M14.018,10H1125.982L1136,20H4Z" transform="translate(44 606)"/>
            <path id="Path_32-7" data-name="Path 32" class="cls-5" d="M14.018,40H1125.982L1136,30H4Z" transform="translate(44 606)"/>
            <path id="Path_33-7" data-name="Path 33" class="cls-4" d="M3,20H1135V30H3Z" transform="translate(45 606)"/>
            <path id="Path_74-7" data-name="Path 74" class="cls-6" d="M13,40H1125V50H13Z" transform="translate(45 606)"/>
          </g>
          <g id="Group_10-8" data-name="Group 10" transform="translate(-48 -336)">
            <path id="Path_31-8" data-name="Path 31" class="cls-4" d="M14.018,10H1125.982L1136,20H4Z" transform="translate(44 606)"/>
            <path id="Path_32-8" data-name="Path 32" class="cls-5" d="M14.018,40H1125.982L1136,30H4Z" transform="translate(44 606)"/>
            <path id="Path_33-8" data-name="Path 33" class="cls-4" d="M3,20H1135V30H3Z" transform="translate(45 606)"/>
            <path id="Path_74-8" data-name="Path 74" class="cls-6" d="M13,40H1125V50H13Z" transform="translate(45 606)"/>
          </g>
          <g id="Group_10-9" data-name="Group 10" transform="translate(-48 -296)">
            <path id="Path_31-9" data-name="Path 31" class="cls-4" d="M14.018,10H1125.982L1136,20H4Z" transform="translate(44 606)"/>
            <path id="Path_32-9" data-name="Path 32" class="cls-5" d="M14.018,40H1125.982L1136,30H4Z" transform="translate(44 606)"/>
            <path id="Path_33-9" data-name="Path 33" class="cls-4" d="M3,20H1135V30H3Z" transform="translate(45 606)"/>
            <path id="Path_74-9" data-name="Path 74" class="cls-6" d="M13,40H1125V50H13Z" transform="translate(45 606)"/>
          </g>
          <g id="Group_10-10" data-name="Group 10" transform="translate(-48 -256)">
            <path id="Path_31-10" data-name="Path 31" class="cls-4" d="M14.018,10H1125.982L1136,20H4Z" transform="translate(44 606)"/>
            <path id="Path_32-10" data-name="Path 32" class="cls-5" d="M14.018,40H1125.982L1136,30H4Z" transform="translate(44 606)"/>
            <path id="Path_33-10" data-name="Path 33" class="cls-4" d="M3,20H1135V30H3Z" transform="translate(45 606)"/>
            <path id="Path_74-10" data-name="Path 74" class="cls-6" d="M13,40H1125V50H13Z" transform="translate(45 606)"/>
          </g>
          <g id="Group_10-11" data-name="Group 10" transform="translate(-48 -216)">
            <path id="Path_31-11" data-name="Path 31" class="cls-4" d="M14.018,10H1125.982L1136,20H4Z" transform="translate(44 606)"/>
            <path id="Path_32-11" data-name="Path 32" class="cls-5" d="M14.018,40H1125.982L1136,30H4Z" transform="translate(44 606)"/>
            <path id="Path_33-11" data-name="Path 33" class="cls-4" d="M3,20H1135V30H3Z" transform="translate(45 606)"/>
            <path id="Path_74-11" data-name="Path 74" class="cls-6" d="M13,40H1125V50H13Z" transform="translate(45 606)"/>
          </g>
          <g id="Group_10-12" data-name="Group 10" transform="translate(-48 -176)">
            <path id="Path_31-12" data-name="Path 31" class="cls-4" d="M14.018,10H1125.982L1136,20H4Z" transform="translate(44 606)"/>
            <path id="Path_32-12" data-name="Path 32" class="cls-5" d="M14.018,40H1125.982L1136,30H4Z" transform="translate(44 606)"/>
            <path id="Path_33-12" data-name="Path 33" class="cls-4" d="M3,20H1135V30H3Z" transform="translate(45 606)"/>
            <path id="Path_74-12" data-name="Path 74" class="cls-6" d="M13,40H1125V50H13Z" transform="translate(45 606)"/>
          </g>
          <g id="Group_10-13" data-name="Group 10" transform="translate(-48 -136)">
            <path id="Path_31-13" data-name="Path 31" class="cls-4" d="M14.018,10H1125.982L1136,20H4Z" transform="translate(44 606)"/>
            <path id="Path_32-13" data-name="Path 32" class="cls-5" d="M14.018,40H1125.982L1136,30H4Z" transform="translate(44 606)"/>
            <path id="Path_33-13" data-name="Path 33" class="cls-4" d="M3,20H1135V30H3Z" transform="translate(45 606)"/>
            <path id="Path_74-13" data-name="Path 74" class="cls-6" d="M13,40H1125V50H13Z" transform="translate(45 606)"/>
          </g>
          <g id="Group_10-14" data-name="Group 10" transform="translate(-48 -96)">
            <path id="Path_31-14" data-name="Path 31" class="cls-4" d="M14.018,10H1125.982L1136,20H4Z" transform="translate(44 606)"/>
            <path id="Path_32-14" data-name="Path 32" class="cls-5" d="M14.018,40H1125.982L1136,30H4Z" transform="translate(44 606)"/>
            <path id="Path_33-14" data-name="Path 33" class="cls-4" d="M3,20H1135V30H3Z" transform="translate(45 606)"/>
            <path id="Path_74-14" data-name="Path 74" class="cls-6" d="M13,40H1125V50H13Z" transform="translate(45 606)"/>
          </g>
          <g id="Group_10-15" data-name="Group 10" transform="translate(-48 -56)">
            <path id="Path_31-15" data-name="Path 31" class="cls-4" d="M14.018,10H1125.982L1136,20H4Z" transform="translate(44 606)"/>
            <path id="Path_32-15" data-name="Path 32" class="cls-5" d="M14.018,40H1125.982L1136,30H4Z" transform="translate(44 606)"/>
            <path id="Path_33-15" data-name="Path 33" class="cls-4" d="M3,20H1135V30H3Z" transform="translate(45 606)"/>
            <path id="Path_74-15" data-name="Path 74" class="cls-6" d="M13,40H1125V50H13Z" transform="translate(45 606)"/>
          </g>
        </g>
      </g>
      <path id="Shape" class="cls-7" d="M1163.21.212,11.233.2,28.849,15.161H1145.2Z" transform="translate(7513.788 2550.8)"/>
      <path id="Shape-2" data-name="Shape" class="cls-8" d="M1.6.173l0,576.043L19.54,576.2l.04-561.038Z" transform="translate(7523.391 2550.8)"/>
      <path id="Shape-3" data-name="Shape" class="cls-9" d="M2379.218,15.051l.334,561.149h17.678V.2Z" transform="translate(6279.771 2550.8)"/>
    </g>
    <g id="Group_34" data-name="Group 34" transform="translate(-586 1387)">
      <rect id="Rectangle_20" data-name="Rectangle 20" class="cls-10" width="11.033" height="32.069" rx="5.516" transform="translate(9184 1434)"/>
      <rect id="Rectangle_21" data-name="Rectangle 21" class="cls-10" width="11.033" height="32.069" rx="5.516" transform="translate(9226.815 1434)"/>
      <path id="Rectangle_32" data-name="Rectangle 32" class="cls-11" d="M5.516,0h0a5.516,5.516,0,0,1,5.516,5.516V11.89a0,0,0,0,1,0,0H0a0,0,0,0,1,0,0V5.516A5.516,5.516,0,0,1,5.516,0Z" transform="translate(9226.815 1434)"/>
      <path id="Rectangle_33" data-name="Rectangle 33" class="cls-11" d="M5.516,0h0a5.516,5.516,0,0,1,5.516,5.516V11.89a0,0,0,0,1,0,0H0a0,0,0,0,1,0,0V5.516A5.516,5.516,0,0,1,5.516,0Z" transform="translate(9226.815 1434)"/>
      <path id="Rectangle_34" data-name="Rectangle 34" class="cls-11" d="M5.516,0h0a5.516,5.516,0,0,1,5.516,5.516V11.89a0,0,0,0,1,0,0H0a0,0,0,0,1,0,0V5.516A5.516,5.516,0,0,1,5.516,0Z" transform="translate(9184 1434)"/>
      <path id="Rectangle_35" data-name="Rectangle 35" class="cls-12" d="M0,0H11.033a0,0,0,0,1,0,0V6.374A5.516,5.516,0,0,1,5.516,11.89h0A5.516,5.516,0,0,1,0,6.374V0A0,0,0,0,1,0,0Z" transform="translate(9184 1454.179)"/>
      <rect id="Rectangle_22" data-name="Rectangle 22" class="cls-10" width="11.033" height="32.069" rx="5.516" transform="translate(9245.736 1434)"/>
      <rect id="Rectangle_24" data-name="Rectangle 24" class="cls-13" width="31.783" height="19.55" transform="translate(9195.032 1440.059)"/>
      <rect id="Rectangle_25" data-name="Rectangle 25" class="cls-14" width="7.889" height="8.003" transform="translate(9237.849 1445.89)"/>
      <rect id="Rectangle_30" data-name="Rectangle 30" class="cls-15" width="7.889" height="4.001" transform="translate(9237.849 1449.891)"/>
      <rect id="Rectangle_28" data-name="Rectangle 28" class="cls-14" width="31.726" height="8.003" transform="translate(9195.032 1445.89)"/>
      <rect id="Rectangle_29" data-name="Rectangle 29" class="cls-15" width="31.726" height="4.001" transform="translate(9195.032 1449.891)"/>
      <path id="Rectangle_26" data-name="Rectangle 26" class="cls-14" d="M0,0H2.572a4,4,0,0,1,4,4V4a4,4,0,0,1-4,4H0A0,0,0,0,1,0,8V0A0,0,0,0,1,0,0Z" transform="translate(9256.77 1445.89)"/>
      <path id="Rectangle_31" data-name="Rectangle 31" class="cls-15" d="M0,0H6.574a0,0,0,0,1,0,0V0a4,4,0,0,1-4,4H0A0,0,0,0,1,0,4V0A0,0,0,0,1,0,0Z" transform="translate(9256.77 1449.891)"/>
      <g id="Group_26" data-name="Group 26" transform="translate(9187.201 1436.858)">
        <rect id="Rectangle_23" data-name="Rectangle 23" class="cls-16" width="6.459" height="19.493" rx="3.23" transform="translate(30.354 12.976)"/>
        <circle id="Ellipse_3" data-name="Ellipse 3" class="cls-14" cx="2.344" cy="2.344" r="2.344" transform="translate(0 0)"/>
        <g id="Rectangle_27" data-name="Rectangle 27" class="cls-17" transform="translate(3.758 0.444) rotate(45)">
          <rect id="fill" class="cls-19" width="0.686" height="4.687"/>
          <path class="cls-20" d="M0,0.5h0.685964047908783M0.5,0v4.687420845031738M0.685964047908783,4.187420845031738h-0.685964047908783M0.18596404790878296,4.687420845031738v-4.687420845031738"/>
        </g>
      </g>
      <g id="Group_29" data-name="Group 29" transform="translate(9226.815 1434)">
        <g id="Group_32" data-name="Group 32" transform="translate(0 0)">
          <path id="Rectangle_37" data-name="Rectangle 37" class="cls-11" d="M5.516,0h0a5.516,5.516,0,0,1,5.516,5.516V11.89a0,0,0,0,1,0,0H0a0,0,0,0,1,0,0V5.516A5.516,5.516,0,0,1,5.516,0Z" transform="translate(18.978)"/>
          <path id="Rectangle_36" data-name="Rectangle 36" class="cls-12" d="M0,0H11.033a0,0,0,0,1,0,0V6.374A5.516,5.516,0,0,1,5.516,11.89h0A5.516,5.516,0,0,1,0,6.374V0A0,0,0,0,1,0,0Z" transform="translate(18.978 20.179)"/>
          <path id="Rectangle_38" data-name="Rectangle 38" class="cls-12" d="M0,0H11.033a0,0,0,0,1,0,0V6.374A5.516,5.516,0,0,1,5.516,11.89h0A5.516,5.516,0,0,1,0,6.374V0A0,0,0,0,1,0,0Z" transform="translate(0 20.179)"/>
        </g>
        <circle id="Ellipse_3-2" data-name="Ellipse 3" class="cls-14" cx="2.344" cy="2.344" r="2.344" transform="translate(3.201 2.858)"/>
        <g id="Rectangle_27-2" data-name="Rectangle 27" class="cls-17" transform="translate(6.96 3.302) rotate(45)">
          <rect id="fill-2" class="cls-19" width="0.686" height="4.687"/>
          <path class="cls-21" d="M0,0.5h0.685964047908783M0.5,0v4.687420845031738M0.685964047908783,4.187420845031738h-0.685964047908783M0.18596404790878296,4.687420845031738v-4.687420845031738"/>
        </g>
      </g>
      <g id="Group_31" data-name="Group 31" transform="translate(9248.881 1436.858)">
        <circle id="Ellipse_3-3" data-name="Ellipse 3" class="cls-14" cx="2.344" cy="2.344" r="2.344" transform="translate(0 0)"/>
        <g id="Rectangle_27-3" data-name="Rectangle 27" class="cls-17" transform="translate(3.758 0.444) rotate(45)">
          <rect id="fill-3" class="cls-19" width="0.686" height="4.687"/>
          <path class="cls-22" d="M0,0.5h0.685964047908783M0.5,0v4.687420845031738M0.685964047908783,4.187420845031738h-0.685964047908783M0.18596404790878296,4.687420845031738v-4.687420845031738"/>
        </g>
      </g>
      <g id="Group_27" data-name="Group 27" transform="translate(9187.201 1458.523)">
        <circle id="Ellipse_3-4" data-name="Ellipse 3" class="cls-14" cx="2.344" cy="2.344" r="2.344" transform="translate(0 0)"/>
        <g id="Rectangle_27-4" data-name="Rectangle 27" class="cls-17" transform="translate(3.758 0.444) rotate(45)">
          <rect id="fill-4" class="cls-19" width="0.686" height="4.687"/>
          <path class="cls-23" d="M0,0.5h0.685964047908783M0.5,0v4.687420845031738M0.685964047908783,4.187420845031738h-0.685964047908783M0.18596404790878296,4.687420845031738v-4.687420845031738"/>
        </g>
      </g>
      <g id="Group_28" data-name="Group 28" transform="translate(9230.017 1458.523)">
        <circle id="Ellipse_3-5" data-name="Ellipse 3" class="cls-14" cx="2.344" cy="2.344" r="2.344" transform="translate(0 0)"/>
        <g id="Rectangle_27-5" data-name="Rectangle 27" class="cls-17" transform="translate(3.758 0.444) rotate(45)">
          <rect id="fill-5" class="cls-19" width="0.686" height="4.687"/>
          <path class="cls-24" d="M0,0.5h0.685964047908783M0.5,0v4.687420845031738M0.685964047908783,4.187420845031738h-0.685964047908783M0.18596404790878296,4.687420845031738v-4.687420845031738"/>
        </g>
      </g>
      <g id="Group_30" data-name="Group 30" transform="translate(9248.881 1458.523)">
        <circle id="Ellipse_3-6" data-name="Ellipse 3" class="cls-14" cx="2.344" cy="2.344" r="2.344" transform="translate(0 0)"/>
        <g id="Rectangle_27-6" data-name="Rectangle 27" class="cls-17" transform="translate(3.758 0.444) rotate(45)">
          <rect id="fill-6" class="cls-19" width="0.686" height="4.687"/>
          <path class="cls-25" d="M0,0.5h0.685964047908783M0.5,0v4.687420845031738M0.685964047908783,4.187420845031738h-0.685964047908783M0.18596404790878296,4.687420845031738v-4.687420845031738"/>
        </g>
      </g>
    </g>
    <path id="Path_97" data-name="Path 97" class="cls-4" d="M3,20H1119.666V40H3Z" transform="translate(7540 3087)"/>
    <g id="Group_36" data-name="Group 36" transform="translate(111.998)">
      <path id="Union_4" data-name="Union 4" class="cls-18" d="M25040.416,15522h-30.834a5,5,0,1,1,0-4h30.83a5,5,0,1,1,0,4Z" transform="translate(-17537 -12402.997)"/>
      <path id="Union_5" data-name="Union 5" class="cls-18" d="M25040.416,15522h-30.834a5,5,0,1,1,0-4h30.83a5,5,0,1,1,0,4Z" transform="translate(-17036 -12402.997)"/>
      <path id="Union_6" data-name="Union 6" class="cls-18" d="M25040.416,15522h-30.834a5,5,0,1,1,0-4h30.83a5,5,0,1,1,0,4Z" transform="translate(-16535 -12402.997)"/>
    </g>
  </g>
</svg>
