<svg xmlns="http://www.w3.org/2000/svg" xmlns:xlink="http://www.w3.org/1999/xlink" viewBox="0 0 864.012 1008.043">
  <defs>
    <style>
      .cls-1, .cls-20, .cls-21, .cls-22, .cls-23, .cls-24, .cls-25 {
        fill: none;
      }

      .cls-17, .cls-18, .cls-2 {
        fill: #848484;
      }

      .cls-2, .cls-4, .cls-5, .cls-6 {
        fill-rule: evenodd;
      }

      .cls-3 {
        clip-path: url(#clip-path);
      }

      .cls-4 {
        fill: #fff;
      }

      .cls-5 {
        fill: #f8f8f8;
      }

      .cls-6 {
        fill: #e6e5e5;
      }

      .cls-7 {
        fill: url(#linear-gradient);
      }

      .cls-8 {
        fill: url(#linear-gradient-10);
      }

      .cls-9 {
        fill: url(#linear-gradient-11);
      }

      .cls-10 {
        fill: url(#linear-gradient-12);
      }

      .cls-11 {
        fill: url(#linear-gradient-13);
      }

      .cls-12 {
        fill: url(#linear-gradient-15);
      }

      .cls-13 {
        fill: url(#linear-gradient-18);
      }

      .cls-14 {
        fill: url(#linear-gradient-20);
      }

      .cls-15 {
        fill: #d5d5d5;
      }

      .cls-16 {
        fill: #c1c9d3;
      }

      .cls-18 {
        stroke: #707070;
      }

      .cls-19 {
        stroke: none;
      }

      .cls-20 {
        clip-path: url(#clip);
      }

      .cls-21 {
        clip-path: url(#clip-2);
      }

      .cls-22 {
        clip-path: url(#clip-3);
      }

      .cls-23 {
        clip-path: url(#clip-4);
      }

      .cls-24 {
        clip-path: url(#clip-5);
      }

      .cls-25 {
        clip-path: url(#clip-6);
      }
    </style>
    <clipPath id="clip-path">
      <rect id="Rectangle_45" data-name="Rectangle 45" class="cls-1" width="844" height="998"/>
    </clipPath>
    <linearGradient id="linear-gradient" x1="0.5" x2="0.5" y2="1" gradientUnits="objectBoundingBox">
      <stop offset="0" stop-color="#fff"/>
      <stop offset="1" stop-color="#9b9a9a"/>
    </linearGradient>
    <linearGradient id="linear-gradient-10" x1="1" y1="0.5" x2="0" y2="0.5" gradientUnits="objectBoundingBox">
      <stop offset="0" stop-color="#e5e2df"/>
      <stop offset="0" stop-color="#d6d7d7"/>
      <stop offset="0" stop-color="#d1d3d4"/>
      <stop offset="0.07" stop-color="#edeeee"/>
      <stop offset="0.11" stop-color="#fff"/>
      <stop offset="0.13" stop-color="#f5f5f6"/>
      <stop offset="0.17" stop-color="#dbdcdd"/>
      <stop offset="0.22" stop-color="#b1b2b4"/>
      <stop offset="0.25" stop-color="#97999c"/>
      <stop offset="0.27" stop-color="#9a9c9e"/>
      <stop offset="0.29" stop-color="#a2a4a7"/>
      <stop offset="0.3" stop-color="#b0b2b4"/>
      <stop offset="0.31" stop-color="#c4c6c8"/>
      <stop offset="0.31" stop-color="#d1d3d4"/>
      <stop offset="0.42" stop-color="#c8caca"/>
      <stop offset="0.59" stop-color="#b0b0b0"/>
      <stop offset="0.65" stop-color="#a6a6a6"/>
      <stop offset="0.68" stop-color="#b0b0b0"/>
      <stop offset="0.74" stop-color="#cacaca"/>
      <stop offset="0.74" stop-color="#ccc"/>
      <stop offset="0.75" stop-color="#d6d6d6"/>
      <stop offset="0.76" stop-color="#e1e1e1"/>
      <stop offset="0.78" stop-color="#e5e5e5"/>
      <stop offset="0.8" stop-color="#f0f0f0"/>
      <stop offset="0.84" stop-color="#fbfbfb"/>
      <stop offset="0.88" stop-color="#fff"/>
      <stop offset="0.9" stop-color="#eaebec"/>
      <stop offset="0.92" stop-color="#d0d2d3"/>
      <stop offset="0.95" stop-color="#bebfc2"/>
      <stop offset="0.97" stop-color="#b3b5b7"/>
      <stop offset="1" stop-color="#afb1b4"/>
    </linearGradient>
    <linearGradient id="linear-gradient-11" x1="1" x2="0" xlink:href="#linear-gradient-10"/>
    <linearGradient id="linear-gradient-12" x1="0.5" y1="0" x2="0.5" y2="1" xlink:href="#linear-gradient-10"/>
    <linearGradient id="linear-gradient-13" x1="0.5" x2="0.5" y2="1" gradientUnits="objectBoundingBox">
      <stop offset="0" stop-color="#fdd25e"/>
      <stop offset="1" stop-color="#f7ca50"/>
    </linearGradient>
    <linearGradient id="linear-gradient-15" x1="0.5" x2="0.5" y2="1" gradientUnits="objectBoundingBox">
      <stop offset="0" stop-color="#fdd25e"/>
      <stop offset="1" stop-color="#fcc122"/>
    </linearGradient>
    <linearGradient id="linear-gradient-18" x1="0.5" x2="0.5" y2="1" gradientUnits="objectBoundingBox">
      <stop offset="0" stop-color="#fcc228"/>
      <stop offset="1" stop-color="#fccf55"/>
    </linearGradient>
    <linearGradient id="linear-gradient-20" x1="0.5" x2="0.5" y2="1" gradientUnits="objectBoundingBox">
      <stop offset="0" stop-color="#ffd562"/>
      <stop offset="1" stop-color="#f7ca4f"/>
    </linearGradient>
    <clipPath id="clip">
      <use xlink:href="#fill"/>
    </clipPath>
    <clipPath id="clip-2">
      <use xlink:href="#fill-2"/>
    </clipPath>
    <clipPath id="clip-3">
      <use xlink:href="#fill-3"/>
    </clipPath>
    <clipPath id="clip-4">
      <use xlink:href="#fill-4"/>
    </clipPath>
    <clipPath id="clip-5">
      <use xlink:href="#fill-5"/>
    </clipPath>
    <clipPath id="clip-6">
      <use xlink:href="#fill-6"/>
    </clipPath>
  </defs>
  <g id="Rollup_doors_12_14_silver" transform="translate(-9837.988 -2577)">
    <g id="Rollup_doors_12_14" transform="translate(8688 814)">
      <path id="Path_75" data-name="Path 75" class="cls-2" d="M0,0H864V1008H0Z" transform="translate(1150 1763)"/>
      <g id="Repeat_Grid_4" data-name="Repeat Grid 4" class="cls-3" transform="translate(1160 1773)">
        <g id="Group_10" data-name="Group 10" transform="translate(-48 -616)">
          <path id="Path_31" data-name="Path 31" class="cls-4" d="M14.018,10H837.982L848,20H4Z" transform="translate(44 606)"/>
          <path id="Path_32" data-name="Path 32" class="cls-5" d="M14.018,40H837.982L848,30H4Z" transform="translate(44 606)"/>
          <path id="Path_33" data-name="Path 33" class="cls-4" d="M3,20H847V30H3Z" transform="translate(45 606)"/>
          <path id="Path_74" data-name="Path 74" class="cls-6" d="M13,40H837V50H13Z" transform="translate(45 606)"/>
        </g>
        <g id="Group_10-2" data-name="Group 10" transform="translate(-48 -576)">
          <path id="Path_31-2" data-name="Path 31" class="cls-4" d="M14.018,10H837.982L848,20H4Z" transform="translate(44 606)"/>
          <path id="Path_32-2" data-name="Path 32" class="cls-5" d="M14.018,40H837.982L848,30H4Z" transform="translate(44 606)"/>
          <path id="Path_33-2" data-name="Path 33" class="cls-4" d="M3,20H847V30H3Z" transform="translate(45 606)"/>
          <path id="Path_74-2" data-name="Path 74" class="cls-6" d="M13,40H837V50H13Z" transform="translate(45 606)"/>
        </g>
        <g id="Group_10-3" data-name="Group 10" transform="translate(-48 -536)">
          <path id="Path_31-3" data-name="Path 31" class="cls-4" d="M14.018,10H837.982L848,20H4Z" transform="translate(44 606)"/>
          <path id="Path_32-3" data-name="Path 32" class="cls-5" d="M14.018,40H837.982L848,30H4Z" transform="translate(44 606)"/>
          <path id="Path_33-3" data-name="Path 33" class="cls-4" d="M3,20H847V30H3Z" transform="translate(45 606)"/>
          <path id="Path_74-3" data-name="Path 74" class="cls-6" d="M13,40H837V50H13Z" transform="translate(45 606)"/>
        </g>
        <g id="Group_10-4" data-name="Group 10" transform="translate(-48 -496)">
          <path id="Path_31-4" data-name="Path 31" class="cls-4" d="M14.018,10H837.982L848,20H4Z" transform="translate(44 606)"/>
          <path id="Path_32-4" data-name="Path 32" class="cls-5" d="M14.018,40H837.982L848,30H4Z" transform="translate(44 606)"/>
          <path id="Path_33-4" data-name="Path 33" class="cls-4" d="M3,20H847V30H3Z" transform="translate(45 606)"/>
          <path id="Path_74-4" data-name="Path 74" class="cls-6" d="M13,40H837V50H13Z" transform="translate(45 606)"/>
        </g>
        <g id="Group_10-5" data-name="Group 10" transform="translate(-48 -456)">
          <path id="Path_31-5" data-name="Path 31" class="cls-4" d="M14.018,10H837.982L848,20H4Z" transform="translate(44 606)"/>
          <path id="Path_32-5" data-name="Path 32" class="cls-5" d="M14.018,40H837.982L848,30H4Z" transform="translate(44 606)"/>
          <path id="Path_33-5" data-name="Path 33" class="cls-4" d="M3,20H847V30H3Z" transform="translate(45 606)"/>
          <path id="Path_74-5" data-name="Path 74" class="cls-6" d="M13,40H837V50H13Z" transform="translate(45 606)"/>
        </g>
        <g id="Group_10-6" data-name="Group 10" transform="translate(-48 -416)">
          <path id="Path_31-6" data-name="Path 31" class="cls-4" d="M14.018,10H837.982L848,20H4Z" transform="translate(44 606)"/>
          <path id="Path_32-6" data-name="Path 32" class="cls-5" d="M14.018,40H837.982L848,30H4Z" transform="translate(44 606)"/>
          <path id="Path_33-6" data-name="Path 33" class="cls-4" d="M3,20H847V30H3Z" transform="translate(45 606)"/>
          <path id="Path_74-6" data-name="Path 74" class="cls-6" d="M13,40H837V50H13Z" transform="translate(45 606)"/>
        </g>
        <g id="Group_10-7" data-name="Group 10" transform="translate(-48 -376)">
          <path id="Path_31-7" data-name="Path 31" class="cls-4" d="M14.018,10H837.982L848,20H4Z" transform="translate(44 606)"/>
          <path id="Path_32-7" data-name="Path 32" class="cls-5" d="M14.018,40H837.982L848,30H4Z" transform="translate(44 606)"/>
          <path id="Path_33-7" data-name="Path 33" class="cls-4" d="M3,20H847V30H3Z" transform="translate(45 606)"/>
          <path id="Path_74-7" data-name="Path 74" class="cls-6" d="M13,40H837V50H13Z" transform="translate(45 606)"/>
        </g>
        <g id="Group_10-8" data-name="Group 10" transform="translate(-48 -336)">
          <path id="Path_31-8" data-name="Path 31" class="cls-4" d="M14.018,10H837.982L848,20H4Z" transform="translate(44 606)"/>
          <path id="Path_32-8" data-name="Path 32" class="cls-5" d="M14.018,40H837.982L848,30H4Z" transform="translate(44 606)"/>
          <path id="Path_33-8" data-name="Path 33" class="cls-4" d="M3,20H847V30H3Z" transform="translate(45 606)"/>
          <path id="Path_74-8" data-name="Path 74" class="cls-6" d="M13,40H837V50H13Z" transform="translate(45 606)"/>
        </g>
        <g id="Group_10-9" data-name="Group 10" transform="translate(-48 -296)">
          <path id="Path_31-9" data-name="Path 31" class="cls-4" d="M14.018,10H837.982L848,20H4Z" transform="translate(44 606)"/>
          <path id="Path_32-9" data-name="Path 32" class="cls-5" d="M14.018,40H837.982L848,30H4Z" transform="translate(44 606)"/>
          <path id="Path_33-9" data-name="Path 33" class="cls-4" d="M3,20H847V30H3Z" transform="translate(45 606)"/>
          <path id="Path_74-9" data-name="Path 74" class="cls-6" d="M13,40H837V50H13Z" transform="translate(45 606)"/>
        </g>
        <g id="Group_10-10" data-name="Group 10" transform="translate(-48 -256)">
          <path id="Path_31-10" data-name="Path 31" class="cls-4" d="M14.018,10H837.982L848,20H4Z" transform="translate(44 606)"/>
          <path id="Path_32-10" data-name="Path 32" class="cls-5" d="M14.018,40H837.982L848,30H4Z" transform="translate(44 606)"/>
          <path id="Path_33-10" data-name="Path 33" class="cls-4" d="M3,20H847V30H3Z" transform="translate(45 606)"/>
          <path id="Path_74-10" data-name="Path 74" class="cls-6" d="M13,40H837V50H13Z" transform="translate(45 606)"/>
        </g>
        <g id="Group_10-11" data-name="Group 10" transform="translate(-48 -216)">
          <path id="Path_31-11" data-name="Path 31" class="cls-4" d="M14.018,10H837.982L848,20H4Z" transform="translate(44 606)"/>
          <path id="Path_32-11" data-name="Path 32" class="cls-5" d="M14.018,40H837.982L848,30H4Z" transform="translate(44 606)"/>
          <path id="Path_33-11" data-name="Path 33" class="cls-4" d="M3,20H847V30H3Z" transform="translate(45 606)"/>
          <path id="Path_74-11" data-name="Path 74" class="cls-6" d="M13,40H837V50H13Z" transform="translate(45 606)"/>
        </g>
        <g id="Group_10-12" data-name="Group 10" transform="translate(-48 -176)">
          <path id="Path_31-12" data-name="Path 31" class="cls-4" d="M14.018,10H837.982L848,20H4Z" transform="translate(44 606)"/>
          <path id="Path_32-12" data-name="Path 32" class="cls-5" d="M14.018,40H837.982L848,30H4Z" transform="translate(44 606)"/>
          <path id="Path_33-12" data-name="Path 33" class="cls-4" d="M3,20H847V30H3Z" transform="translate(45 606)"/>
          <path id="Path_74-12" data-name="Path 74" class="cls-6" d="M13,40H837V50H13Z" transform="translate(45 606)"/>
        </g>
        <g id="Group_10-13" data-name="Group 10" transform="translate(-48 -136)">
          <path id="Path_31-13" data-name="Path 31" class="cls-4" d="M14.018,10H837.982L848,20H4Z" transform="translate(44 606)"/>
          <path id="Path_32-13" data-name="Path 32" class="cls-5" d="M14.018,40H837.982L848,30H4Z" transform="translate(44 606)"/>
          <path id="Path_33-13" data-name="Path 33" class="cls-4" d="M3,20H847V30H3Z" transform="translate(45 606)"/>
          <path id="Path_74-13" data-name="Path 74" class="cls-6" d="M13,40H837V50H13Z" transform="translate(45 606)"/>
        </g>
        <g id="Group_10-14" data-name="Group 10" transform="translate(-48 -96)">
          <path id="Path_31-14" data-name="Path 31" class="cls-4" d="M14.018,10H837.982L848,20H4Z" transform="translate(44 606)"/>
          <path id="Path_32-14" data-name="Path 32" class="cls-5" d="M14.018,40H837.982L848,30H4Z" transform="translate(44 606)"/>
          <path id="Path_33-14" data-name="Path 33" class="cls-4" d="M3,20H847V30H3Z" transform="translate(45 606)"/>
          <path id="Path_74-14" data-name="Path 74" class="cls-6" d="M13,40H837V50H13Z" transform="translate(45 606)"/>
        </g>
        <g id="Group_10-15" data-name="Group 10" transform="translate(-48 -56)">
          <path id="Path_31-15" data-name="Path 31" class="cls-4" d="M14.018,10H837.982L848,20H4Z" transform="translate(44 606)"/>
          <path id="Path_32-15" data-name="Path 32" class="cls-5" d="M14.018,40H837.982L848,30H4Z" transform="translate(44 606)"/>
          <path id="Path_33-15" data-name="Path 33" class="cls-4" d="M3,20H847V30H3Z" transform="translate(45 606)"/>
          <path id="Path_74-15" data-name="Path 74" class="cls-6" d="M13,40H837V50H13Z" transform="translate(45 606)"/>
        </g>
        <g id="Group_10-16" data-name="Group 10" transform="translate(-48 -16)">
          <path id="Path_31-16" data-name="Path 31" class="cls-4" d="M14.018,10H837.982L848,20H4Z" transform="translate(44 606)"/>
          <path id="Path_32-16" data-name="Path 32" class="cls-5" d="M14.018,40H837.982L848,30H4Z" transform="translate(44 606)"/>
          <path id="Path_33-16" data-name="Path 33" class="cls-4" d="M3,20H847V30H3Z" transform="translate(45 606)"/>
          <path id="Path_74-16" data-name="Path 74" class="cls-6" d="M13,40H837V50H13Z" transform="translate(45 606)"/>
        </g>
        <g id="Group_10-17" data-name="Group 10" transform="translate(-48 24)">
          <path id="Path_31-17" data-name="Path 31" class="cls-4" d="M14.018,10H837.982L848,20H4Z" transform="translate(44 606)"/>
          <path id="Path_32-17" data-name="Path 32" class="cls-5" d="M14.018,40H837.982L848,30H4Z" transform="translate(44 606)"/>
          <path id="Path_33-17" data-name="Path 33" class="cls-4" d="M3,20H847V30H3Z" transform="translate(45 606)"/>
          <path id="Path_74-17" data-name="Path 74" class="cls-6" d="M13,40H837V50H13Z" transform="translate(45 606)"/>
        </g>
        <g id="Group_10-18" data-name="Group 10" transform="translate(-48 64)">
          <path id="Path_31-18" data-name="Path 31" class="cls-4" d="M14.018,10H837.982L848,20H4Z" transform="translate(44 606)"/>
          <path id="Path_32-18" data-name="Path 32" class="cls-5" d="M14.018,40H837.982L848,30H4Z" transform="translate(44 606)"/>
          <path id="Path_33-18" data-name="Path 33" class="cls-4" d="M3,20H847V30H3Z" transform="translate(45 606)"/>
          <path id="Path_74-18" data-name="Path 74" class="cls-6" d="M13,40H837V50H13Z" transform="translate(45 606)"/>
        </g>
        <g id="Group_10-19" data-name="Group 10" transform="translate(-48 104)">
          <path id="Path_31-19" data-name="Path 31" class="cls-4" d="M14.018,10H837.982L848,20H4Z" transform="translate(44 606)"/>
          <path id="Path_32-19" data-name="Path 32" class="cls-5" d="M14.018,40H837.982L848,30H4Z" transform="translate(44 606)"/>
          <path id="Path_33-19" data-name="Path 33" class="cls-4" d="M3,20H847V30H3Z" transform="translate(45 606)"/>
          <path id="Path_74-19" data-name="Path 74" class="cls-6" d="M13,40H837V50H13Z" transform="translate(45 606)"/>
        </g>
        <g id="Group_10-20" data-name="Group 10" transform="translate(-48 144)">
          <path id="Path_31-20" data-name="Path 31" class="cls-4" d="M14.018,10H837.982L848,20H4Z" transform="translate(44 606)"/>
          <path id="Path_32-20" data-name="Path 32" class="cls-5" d="M14.018,40H837.982L848,30H4Z" transform="translate(44 606)"/>
          <path id="Path_33-20" data-name="Path 33" class="cls-4" d="M3,20H847V30H3Z" transform="translate(45 606)"/>
          <path id="Path_74-20" data-name="Path 74" class="cls-6" d="M13,40H837V50H13Z" transform="translate(45 606)"/>
        </g>
        <g id="Group_10-21" data-name="Group 10" transform="translate(-48 184)">
          <path id="Path_31-21" data-name="Path 31" class="cls-4" d="M14.018,10H837.982L848,20H4Z" transform="translate(44 606)"/>
          <path id="Path_32-21" data-name="Path 32" class="cls-5" d="M14.018,40H837.982L848,30H4Z" transform="translate(44 606)"/>
          <path id="Path_33-21" data-name="Path 33" class="cls-4" d="M3,20H847V30H3Z" transform="translate(45 606)"/>
          <path id="Path_74-21" data-name="Path 74" class="cls-6" d="M13,40H837V50H13Z" transform="translate(45 606)"/>
        </g>
        <g id="Group_10-22" data-name="Group 10" transform="translate(-48 224)">
          <path id="Path_31-22" data-name="Path 31" class="cls-4" d="M14.018,10H837.982L848,20H4Z" transform="translate(44 606)"/>
          <path id="Path_32-22" data-name="Path 32" class="cls-5" d="M14.018,40H837.982L848,30H4Z" transform="translate(44 606)"/>
          <path id="Path_33-22" data-name="Path 33" class="cls-4" d="M3,20H847V30H3Z" transform="translate(45 606)"/>
          <path id="Path_74-22" data-name="Path 74" class="cls-6" d="M13,40H837V50H13Z" transform="translate(45 606)"/>
        </g>
        <g id="Group_10-23" data-name="Group 10" transform="translate(-48 264)">
          <path id="Path_31-23" data-name="Path 31" class="cls-4" d="M14.018,10H837.982L848,20H4Z" transform="translate(44 606)"/>
          <path id="Path_32-23" data-name="Path 32" class="cls-5" d="M14.018,40H837.982L848,30H4Z" transform="translate(44 606)"/>
          <path id="Path_33-23" data-name="Path 33" class="cls-4" d="M3,20H847V30H3Z" transform="translate(45 606)"/>
          <path id="Path_74-23" data-name="Path 74" class="cls-6" d="M13,40H837V50H13Z" transform="translate(45 606)"/>
        </g>
        <g id="Group_10-24" data-name="Group 10" transform="translate(-48 304)">
          <path id="Path_31-24" data-name="Path 31" class="cls-4" d="M14.018,10H837.982L848,20H4Z" transform="translate(44 606)"/>
          <path id="Path_32-24" data-name="Path 32" class="cls-5" d="M14.018,40H837.982L848,30H4Z" transform="translate(44 606)"/>
          <path id="Path_33-24" data-name="Path 33" class="cls-4" d="M3,20H847V30H3Z" transform="translate(45 606)"/>
          <path id="Path_74-24" data-name="Path 74" class="cls-6" d="M13,40H837V50H13Z" transform="translate(45 606)"/>
        </g>
        <g id="Group_10-25" data-name="Group 10" transform="translate(-48 344)">
          <path id="Path_31-25" data-name="Path 31" class="cls-4" d="M14.018,10H837.982L848,20H4Z" transform="translate(44 606)"/>
          <path id="Path_32-25" data-name="Path 32" class="cls-5" d="M14.018,40H837.982L848,30H4Z" transform="translate(44 606)"/>
          <path id="Path_33-25" data-name="Path 33" class="cls-4" d="M3,20H847V30H3Z" transform="translate(45 606)"/>
          <path id="Path_74-25" data-name="Path 74" class="cls-6" d="M13,40H837V50H13Z" transform="translate(45 606)"/>
        </g>
      </g>
    </g>
    <path id="Path_98" data-name="Path 98" class="cls-4" d="M3,20H848.987V40H3Z" transform="translate(9835 3545)"/>
    <g id="Group_39" data-name="Group 39" transform="translate(1054 25.997)">
      <circle id="Ellipse_10" data-name="Ellipse 10" class="cls-7" cx="5" cy="5" r="5" transform="translate(8833.998 3544.003)"/>
      <circle id="Ellipse_11" data-name="Ellipse 11" class="cls-7" cx="5" cy="5" r="5" transform="translate(8873.998 3544.003)"/>
      <rect id="Rectangle_42" data-name="Rectangle 42" class="cls-7" width="33" height="4" transform="translate(8841.998 3547.003)"/>
    </g>
    <g id="Group_37" data-name="Group 37" transform="translate(951.001 25.997)">
      <circle id="Ellipse_12" data-name="Ellipse 12" class="cls-7" cx="5" cy="5" r="5" transform="translate(9284.998 3544.003)"/>
      <circle id="Ellipse_13" data-name="Ellipse 13" class="cls-7" cx="5" cy="5" r="5" transform="translate(9324.998 3544.003)"/>
      <rect id="Rectangle_43" data-name="Rectangle 43" class="cls-7" width="33" height="4" transform="translate(9292.998 3547.003)"/>
    </g>
    <g id="Group_38" data-name="Group 38" transform="translate(892.003 25.997)">
      <circle id="Ellipse_14" data-name="Ellipse 14" class="cls-7" cx="5" cy="5" r="5" transform="translate(9691.998 3544.003)"/>
      <circle id="Ellipse_15" data-name="Ellipse 15" class="cls-7" cx="5" cy="5" r="5" transform="translate(9731.998 3544.003)"/>
      <rect id="Rectangle_44" data-name="Rectangle 44" class="cls-7" width="33" height="4" transform="translate(9699.998 3547.003)"/>
    </g>
    <g id="Group_46" data-name="Group 46">
      <path id="Shape" class="cls-8" d="M1.6.173l0,1008.043,17.938-.016.04-993.038Z" transform="translate(9836.391 2576.827)"/>
      <path id="Shape-2" data-name="Shape" class="cls-9" d="M2379.218,15.051l.334,993.149h17.678V.2Z" transform="translate(8304.771 2576.827)"/>
      <path id="Shape-3" data-name="Shape" class="cls-10" d="M875.21.212,11.233.2,28.849,15.161H857.2Z" transform="translate(9826.767 2576.8)"/>
    </g>
    <g id="Group_45" data-name="Group 45" transform="translate(902 26)">
      <rect id="Rectangle_20" data-name="Rectangle 20" class="cls-11" width="11.033" height="32.069" rx="5.516" transform="translate(9712 3037)"/>
      <rect id="Rectangle_21" data-name="Rectangle 21" class="cls-11" width="11.033" height="32.069" rx="5.516" transform="translate(9754.815 3037)"/>
      <path id="Rectangle_32" data-name="Rectangle 32" class="cls-12" d="M5.516,0h0a5.516,5.516,0,0,1,5.516,5.516V11.89a0,0,0,0,1,0,0H0a0,0,0,0,1,0,0V5.516A5.516,5.516,0,0,1,5.516,0Z" transform="translate(9754.815 3037)"/>
      <path id="Rectangle_33" data-name="Rectangle 33" class="cls-12" d="M5.516,0h0a5.516,5.516,0,0,1,5.516,5.516V11.89a0,0,0,0,1,0,0H0a0,0,0,0,1,0,0V5.516A5.516,5.516,0,0,1,5.516,0Z" transform="translate(9754.815 3037)"/>
      <path id="Rectangle_34" data-name="Rectangle 34" class="cls-12" d="M5.516,0h0a5.516,5.516,0,0,1,5.516,5.516V11.89a0,0,0,0,1,0,0H0a0,0,0,0,1,0,0V5.516A5.516,5.516,0,0,1,5.516,0Z" transform="translate(9712 3037)"/>
      <path id="Rectangle_35" data-name="Rectangle 35" class="cls-13" d="M0,0H11.033a0,0,0,0,1,0,0V6.374A5.516,5.516,0,0,1,5.516,11.89h0A5.516,5.516,0,0,1,0,6.374V0A0,0,0,0,1,0,0Z" transform="translate(9712 3057.179)"/>
      <rect id="Rectangle_22" data-name="Rectangle 22" class="cls-11" width="11.033" height="32.069" rx="5.516" transform="translate(9773.736 3037)"/>
      <rect id="Rectangle_24" data-name="Rectangle 24" class="cls-14" width="31.783" height="19.55" transform="translate(9723.032 3043.059)"/>
      <rect id="Rectangle_25" data-name="Rectangle 25" class="cls-15" width="7.889" height="8.003" transform="translate(9765.849 3048.89)"/>
      <rect id="Rectangle_30" data-name="Rectangle 30" class="cls-16" width="7.889" height="4.001" transform="translate(9765.849 3052.892)"/>
      <rect id="Rectangle_28" data-name="Rectangle 28" class="cls-15" width="31.726" height="8.003" transform="translate(9723.032 3048.89)"/>
      <rect id="Rectangle_29" data-name="Rectangle 29" class="cls-16" width="31.726" height="4.001" transform="translate(9723.032 3052.892)"/>
      <path id="Rectangle_26" data-name="Rectangle 26" class="cls-15" d="M0,0H2.572a4,4,0,0,1,4,4V4a4,4,0,0,1-4,4H0A0,0,0,0,1,0,8V0A0,0,0,0,1,0,0Z" transform="translate(9784.77 3048.89)"/>
      <path id="Rectangle_31" data-name="Rectangle 31" class="cls-16" d="M0,0H6.574a0,0,0,0,1,0,0V0a4,4,0,0,1-4,4H0A0,0,0,0,1,0,4V0A0,0,0,0,1,0,0Z" transform="translate(9784.77 3052.892)"/>
      <g id="Group_26" data-name="Group 26" transform="translate(9715.201 3039.858)">
        <rect id="Rectangle_23" data-name="Rectangle 23" class="cls-17" width="6.459" height="19.493" rx="3.23" transform="translate(30.354 12.976)"/>
        <circle id="Ellipse_3" data-name="Ellipse 3" class="cls-15" cx="2.344" cy="2.344" r="2.344" transform="translate(0 0)"/>
        <g id="Rectangle_27" data-name="Rectangle 27" class="cls-18" transform="translate(3.758 0.444) rotate(45)">
          <rect id="fill" class="cls-19" width="0.686" height="4.687"/>
          <path class="cls-20" d="M0,0.5h0.685964047908783M0.5,0v4.687420845031738M0.685964047908783,4.187420845031738h-0.685964047908783M0.18596404790878296,4.687420845031738v-4.687420845031738"/>
        </g>
      </g>
      <g id="Group_29" data-name="Group 29" transform="translate(9754.815 3037)">
        <g id="Group_32" data-name="Group 32" transform="translate(0 0)">
          <path id="Rectangle_37" data-name="Rectangle 37" class="cls-12" d="M5.516,0h0a5.516,5.516,0,0,1,5.516,5.516V11.89a0,0,0,0,1,0,0H0a0,0,0,0,1,0,0V5.516A5.516,5.516,0,0,1,5.516,0Z" transform="translate(18.978)"/>
          <path id="Rectangle_36" data-name="Rectangle 36" class="cls-13" d="M0,0H11.033a0,0,0,0,1,0,0V6.374A5.516,5.516,0,0,1,5.516,11.89h0A5.516,5.516,0,0,1,0,6.374V0A0,0,0,0,1,0,0Z" transform="translate(18.978 20.179)"/>
          <path id="Rectangle_38" data-name="Rectangle 38" class="cls-13" d="M0,0H11.033a0,0,0,0,1,0,0V6.374A5.516,5.516,0,0,1,5.516,11.89h0A5.516,5.516,0,0,1,0,6.374V0A0,0,0,0,1,0,0Z" transform="translate(0 20.179)"/>
        </g>
        <circle id="Ellipse_3-2" data-name="Ellipse 3" class="cls-15" cx="2.344" cy="2.344" r="2.344" transform="translate(3.201 2.858)"/>
        <g id="Rectangle_27-2" data-name="Rectangle 27" class="cls-18" transform="translate(6.96 3.302) rotate(45)">
          <rect id="fill-2" class="cls-19" width="0.686" height="4.687"/>
          <path class="cls-21" d="M0,0.5h0.685964047908783M0.5,0v4.687420845031738M0.685964047908783,4.187420845031738h-0.685964047908783M0.18596404790878296,4.687420845031738v-4.687420845031738"/>
        </g>
      </g>
      <g id="Group_31" data-name="Group 31" transform="translate(9776.881 3039.858)">
        <circle id="Ellipse_3-3" data-name="Ellipse 3" class="cls-15" cx="2.344" cy="2.344" r="2.344" transform="translate(0 0)"/>
        <g id="Rectangle_27-3" data-name="Rectangle 27" class="cls-18" transform="translate(3.758 0.444) rotate(45)">
          <rect id="fill-3" class="cls-19" width="0.686" height="4.687"/>
          <path class="cls-22" d="M0,0.5h0.685964047908783M0.5,0v4.687420845031738M0.685964047908783,4.187420845031738h-0.685964047908783M0.18596404790878296,4.687420845031738v-4.687420845031738"/>
        </g>
      </g>
      <g id="Group_27" data-name="Group 27" transform="translate(9715.201 3061.523)">
        <circle id="Ellipse_3-4" data-name="Ellipse 3" class="cls-15" cx="2.344" cy="2.344" r="2.344" transform="translate(0 0)"/>
        <g id="Rectangle_27-4" data-name="Rectangle 27" class="cls-18" transform="translate(3.758 0.444) rotate(45)">
          <rect id="fill-4" class="cls-19" width="0.686" height="4.687"/>
          <path class="cls-23" d="M0,0.5h0.685964047908783M0.5,0v4.687420845031738M0.685964047908783,4.187420845031738h-0.685964047908783M0.18596404790878296,4.687420845031738v-4.687420845031738"/>
        </g>
      </g>
      <g id="Group_28" data-name="Group 28" transform="translate(9758.017 3061.523)">
        <circle id="Ellipse_3-5" data-name="Ellipse 3" class="cls-15" cx="2.344" cy="2.344" r="2.344" transform="translate(0 0)"/>
        <g id="Rectangle_27-5" data-name="Rectangle 27" class="cls-18" transform="translate(3.758 0.444) rotate(45)">
          <rect id="fill-5" class="cls-19" width="0.686" height="4.687"/>
          <path class="cls-24" d="M0,0.5h0.685964047908783M0.5,0v4.687420845031738M0.685964047908783,4.187420845031738h-0.685964047908783M0.18596404790878296,4.687420845031738v-4.687420845031738"/>
        </g>
      </g>
      <g id="Group_30" data-name="Group 30" transform="translate(9776.881 3061.523)">
        <circle id="Ellipse_3-6" data-name="Ellipse 3" class="cls-15" cx="2.344" cy="2.344" r="2.344" transform="translate(0 0)"/>
        <g id="Rectangle_27-6" data-name="Rectangle 27" class="cls-18" transform="translate(3.758 0.444) rotate(45)">
          <rect id="fill-6" class="cls-19" width="0.686" height="4.687"/>
          <path class="cls-25" d="M0,0.5h0.685964047908783M0.5,0v4.687420845031738M0.685964047908783,4.187420845031738h-0.685964047908783M0.18596404790878296,4.687420845031738v-4.687420845031738"/>
        </g>
      </g>
    </g>
  </g>
</svg>
