<svg xmlns="http://www.w3.org/2000/svg" viewBox="912.006 2459 11.996 10">
  <defs>
    <style>
      .cls-1 {
        fill: #455860;
      }
    </style>
  </defs>
  <g id="noun_63516_cc" transform="translate(810 2701.994)">
    <g id="Group_264" data-name="Group 264" transform="translate(98 -249)">
      <path id="Path_1057" data-name="Path 1057" class="cls-1" d="M16.285,7.635l3.4,3.372-3.4,3.371a.953.953,0,0,0,0,1.349.971.971,0,0,0,1.363,0l4.076-4.046a.953.953,0,0,0,0-1.349L17.648,6.286a.971.971,0,0,0-1.363,0A.954.954,0,0,0,16.285,7.635Z" transform="translate(-6.001)"/>
      <path id="Path_1058" data-name="Path 1058" class="cls-1" d="M9.726,11.681a.953.953,0,0,0,0-1.349L5.649,6.286a.971.971,0,0,0-1.363,0,.953.953,0,0,0,0,1.349l3.4,3.372-3.4,3.371a.953.953,0,0,0,0,1.349.971.971,0,0,0,1.363,0Z" transform="translate(0 0)"/>
    </g>
  </g>
</svg>
