<svg xmlns="http://www.w3.org/2000/svg" viewBox="-3297 15680 20 20">
  <defs>
    <style>
      .cls-1 {
        fill: #455860;
      }
    </style>
  </defs>
  <g id="Group_774" data-name="Group 774" transform="translate(-3346 14211)">
    <path id="Subtraction_7" data-name="Subtraction 7" class="cls-1" d="M-3547,301a10.011,10.011,0,0,1-10-10,10.011,10.011,0,0,1,10-10,10.011,10.011,0,0,1,10,10A10.011,10.011,0,0,1-3547,301Zm0-18a8.009,8.009,0,0,0-8,8,8.009,8.009,0,0,0,8,8,8.009,8.009,0,0,0,8-8A8.009,8.009,0,0,0-3547,283Z" transform="translate(3606 1188)"/>
    <circle id="Ellipse_113" data-name="Ellipse 113" class="cls-1" cx="4" cy="4" r="4" transform="translate(55 1475)"/>
  </g>
</svg>
